<svg width="685" height="34" viewBox="0 0 685 34" fill="none" xmlns="http://www.w3.org/2000/svg">
<path d="M0.656171 33.2656V0.86702H28.6203V8.69517H14.0953V12.9486H26.7199V20.3243H14.0953V25.4375H28.6203V33.2656H0.656171ZM37.6593 33.2656V10.1884H30.0121V0.86702H58.9717V10.1884H51.3246V33.2656H37.6593ZM60.974 33.2656V0.86702H74.5036V10.9124H80.0693V0.86702H93.6441V33.2656H80.0693V21.908H74.5036V33.2656H60.974ZM96.8996 33.2656V0.86702H110.565V33.2656H96.8996ZM118.123 33.2656C116.795 33.2656 115.694 32.7679 114.819 31.7724C113.975 30.7769 113.552 29.5401 113.552 28.0619V6.07071C113.552 4.56239 113.975 3.32557 114.819 2.36025C115.694 1.36476 116.795 0.86702 118.123 0.86702H141.607C142.934 0.86702 144.02 1.36476 144.865 2.36025C145.74 3.32557 146.177 4.56239 146.177 6.07071V28.0619C146.177 29.5401 145.74 30.7769 144.865 31.7724C144.02 32.7679 142.934 33.2656 141.607 33.2656H118.123ZM129.888 25.9352C130.732 25.9352 131.396 25.7693 131.879 25.4375C132.361 25.0755 132.603 24.4721 132.603 23.6275V10.5504C132.603 9.70574 132.346 9.10242 131.833 8.74042C131.351 8.37843 130.672 8.19743 129.797 8.19743C128.952 8.19743 128.289 8.37843 127.806 8.74042C127.323 9.07225 127.082 9.6605 127.082 10.5052V23.5822C127.082 24.4269 127.338 25.0302 127.851 25.3922C128.364 25.7542 129.043 25.9352 129.888 25.9352ZM149.175 33.2656V0.86702H176.28C177.607 0.86702 178.693 1.36476 179.537 2.36025C180.412 3.32557 180.85 4.56239 180.85 6.07071V20.5505C180.85 22.0287 180.412 23.2655 179.537 24.261C178.693 25.2565 177.607 25.7542 176.28 25.7542H162.705V33.2656H149.175ZM162.705 18.2428H165.374C166.219 18.2428 166.807 17.8205 167.139 16.9758C167.501 16.1312 167.682 14.9094 167.682 13.3106C167.682 11.7118 167.516 10.4901 167.184 9.64541C166.853 8.80076 166.249 8.37843 165.374 8.37843H162.705V18.2428ZM183.51 33.2656V0.86702H197.175V33.2656H183.51ZM198.353 33.2656L206.769 0.86702H226.091L234.507 33.2656H220.073L218.76 28.0619H210.977L209.62 33.2656H198.353ZM212.606 20.6863H217.177L215.05 11.8174H214.824L212.606 20.6863ZM241.823 22.451V14.0346H256.891V22.451H241.823ZM266.718 33.2656V0.86702H280.247V23.9442H292.6V33.2656H266.718ZM292.519 33.2656L300.936 0.86702H320.257L328.674 33.2656H314.239L312.927 28.0619H305.144L303.786 33.2656H292.519ZM306.773 20.6863H311.343L309.216 11.8174H308.99L306.773 20.6863ZM329.864 33.2656V0.86702H342.307L347.375 6.9757L350.95 11.2744H351.176V6.7042V0.86702H361.674V33.2656H350.135L344.434 26.1615L340.542 21.2745H340.316V27.0665V33.2656H329.864ZM364.95 33.2656V0.86702H392.552C393.879 0.86702 394.965 1.36476 395.81 2.36025C396.685 3.32557 397.122 4.56239 397.122 6.07071V28.0619C397.122 29.5401 396.685 30.7769 395.81 31.7724C394.965 32.7679 393.879 33.2656 392.552 33.2656H364.95ZM378.298 25.4375H380.742C381.164 25.4375 381.556 25.347 381.918 25.166C382.31 24.9548 382.642 24.5626 382.914 23.9895C383.185 23.4163 383.396 22.5717 383.547 21.4555C383.698 20.3394 383.773 18.8461 383.773 16.9758C383.773 14.5625 383.638 12.7676 383.366 11.5911C383.095 10.4147 382.733 9.64541 382.28 9.28342C381.828 8.89125 381.315 8.69517 380.742 8.69517H378.298V25.4375ZM411.67 33.2656C410.342 33.2656 409.241 32.7679 408.366 31.7724C407.522 30.7769 407.099 29.5401 407.099 28.0619V6.07071C407.099 4.56239 407.522 3.32557 408.366 2.36025C409.241 1.36476 410.342 0.86702 411.67 0.86702H435.154C436.481 0.86702 437.567 1.36476 438.412 2.36025C439.287 3.32557 439.724 4.56239 439.724 6.07071V28.0619C439.724 29.5401 439.287 30.7769 438.412 31.7724C437.567 32.7679 436.481 33.2656 435.154 33.2656H411.67ZM423.434 25.9352C424.279 25.9352 424.943 25.7693 425.425 25.4375C425.908 25.0755 426.149 24.4721 426.149 23.6275V10.5504C426.149 9.70574 425.893 9.10242 425.38 8.74042C424.898 8.37843 424.219 8.19743 423.344 8.19743C422.499 8.19743 421.836 8.37843 421.353 8.74042C420.87 9.07225 420.629 9.6605 420.629 10.5052V23.5822C420.629 24.4269 420.885 25.0302 421.398 25.3922C421.911 25.7542 422.59 25.9352 423.434 25.9352ZM442.722 33.2656V0.86702H469.555V10.1884H456.252V15.5731H468.559V24.442H456.252V33.2656H442.722ZM482.991 33.2656C481.663 33.2656 480.562 32.7679 479.687 31.7724C478.843 30.7769 478.42 29.5401 478.42 28.0619V6.07071C478.42 4.56239 478.843 3.32557 479.687 2.36025C480.562 1.36476 481.663 0.86702 482.991 0.86702H506.475C507.802 0.86702 508.888 1.36476 509.733 2.36025C510.608 3.32557 511.045 4.56239 511.045 6.07071V28.0619C511.045 29.5401 510.608 30.7769 509.733 31.7724C508.888 32.7679 507.802 33.2656 506.475 33.2656H482.991ZM494.755 25.9352C495.6 25.9352 496.264 25.7693 496.746 25.4375C497.229 25.0755 497.47 24.4721 497.47 23.6275V10.5504C497.47 9.70574 497.214 9.10242 496.701 8.74042C496.218 8.37843 495.54 8.19743 494.665 8.19743C493.82 8.19743 493.157 8.37843 492.674 8.74042C492.191 9.07225 491.95 9.6605 491.95 10.5052V23.5822C491.95 24.4269 492.206 25.0302 492.719 25.3922C493.232 25.7542 493.911 25.9352 494.755 25.9352ZM514.043 33.2656V0.86702H541.645C542.972 0.86702 544.058 1.36476 544.903 2.36025C545.778 3.32557 546.215 4.56239 546.215 6.07071V18.5143C546.215 19.9925 545.778 21.2293 544.903 22.2248C544.058 23.2202 542.972 23.718 541.645 23.718H527.437V33.2656H514.043ZM532.459 33.2656L528.613 21.9985H542.279L546.532 33.2656H532.459ZM530.559 16.4328C531.343 16.4328 531.886 16.0708 532.188 15.3468C532.49 14.5927 532.64 13.567 532.64 12.2699C532.64 11.0331 532.49 10.0376 532.188 9.28342C531.886 8.52926 531.343 8.15218 530.559 8.15218H527.437V16.4328H530.559ZM548.996 33.2656V0.86702H562.662V33.2656H548.996ZM570.219 33.2656C568.892 33.2656 567.791 32.7679 566.916 31.7724C566.072 30.7769 565.649 29.5401 565.649 28.0619V6.07071C565.649 4.56239 566.072 3.32557 566.916 2.36025C567.791 1.36476 568.892 0.86702 570.219 0.86702H593.704C595.031 0.86702 596.117 1.36476 596.962 2.36025C597.837 3.32557 598.274 4.56239 598.274 6.07071V12.4056H584.699V10.1432C584.699 9.2985 584.443 8.69517 583.93 8.33318C583.447 7.97118 582.769 7.79019 581.894 7.79019C581.049 7.79019 580.385 7.97118 579.903 8.33318C579.42 8.69517 579.179 9.2985 579.179 10.1432V23.9895C579.179 24.8341 579.435 25.4375 579.948 25.7995C580.461 26.1615 581.14 26.3425 581.984 26.3425C582.829 26.3425 583.493 26.1615 583.975 25.7995C584.458 25.4375 584.699 24.8341 584.699 23.9895V21.2293H580.944V14.4871H598.274V33.2656H587.324V28.8764H586.962C586.841 30.1736 586.343 31.2294 585.468 32.0439C584.624 32.8584 583.538 33.2656 582.211 33.2656H570.219ZM601.404 33.2656V0.86702H615.07V33.2656H601.404ZM618.329 33.2656V0.86702H630.772L635.84 6.9757L639.415 11.2744H639.641V6.7042V0.86702H650.139V33.2656H638.601L632.899 26.1615L629.008 21.2745H628.781V27.0665V33.2656H618.329ZM657.442 33.2656C656.115 33.2656 655.014 32.7679 654.139 31.7724C653.294 30.7769 652.872 29.5401 652.872 28.0619V23.0392H666.266V24.3967C666.266 25.1811 666.462 25.7995 666.854 26.252C667.246 26.7045 667.91 26.9307 668.845 26.9307C669.81 26.9307 670.459 26.7045 670.791 26.252C671.122 25.7995 671.288 25.2414 671.288 24.5777C671.288 23.7934 671.107 23.2202 670.745 22.8583C670.413 22.4661 669.765 22.1946 668.8 22.0438L657.532 20.279C656.145 20.0377 655.029 19.4495 654.184 18.5143C653.339 17.549 652.917 16.2669 652.917 14.6681V6.07071C652.917 4.56239 653.339 3.32557 654.184 2.36025C655.059 1.36476 656.16 0.86702 657.487 0.86702H680.112C681.439 0.86702 682.525 1.36476 683.37 2.36025C684.245 3.32557 684.682 4.56239 684.682 6.07071V11.0934H671.334V9.73591C671.334 8.95159 671.137 8.33318 670.745 7.88068C670.383 7.42819 669.72 7.20194 668.754 7.20194C667.819 7.20194 667.171 7.41311 666.809 7.83543C666.477 8.2276 666.311 8.74042 666.311 9.37392C666.311 10.0376 666.477 10.5504 666.809 10.9124C667.14 11.2442 667.804 11.4856 668.8 11.6364L680.067 13.4011C681.484 13.6123 682.601 14.2307 683.415 15.2563C684.26 16.282 684.682 17.6395 684.682 19.3288V28.0619C684.682 29.5401 684.245 30.7769 683.37 31.7724C682.525 32.7679 681.439 33.2656 680.112 33.2656H657.442Z" fill="#1D1D1D"/>
</svg>
