<svg width="686" height="205" viewBox="0 0 686 205" fill="none" xmlns="http://www.w3.org/2000/svg">
<path d="M33.951 114.326V204.429H0.915039V0.117188H33.951V81.4621H39.8679V0.117188H72.9039V204.429H39.8679V114.326H33.951Z" fill="#1D1D1D"/>
<path d="M93.8741 204.429C89.2721 204.429 85.3275 202.958 82.0403 200.015C79.0819 196.745 77.6027 192.821 77.6027 188.243V0.117188H110.639V171.565H116.556V0.117188H149.591V188.243C149.591 192.821 147.948 196.745 144.661 200.015C141.702 202.958 137.922 204.429 133.32 204.429H93.8741Z" fill="#1D1D1D"/>
<path d="M265.232 204.429H232.196V32.9813H226.279V204.429H193.243V32.9813H187.326V204.429H154.29V6.37088C154.29 2.91706 157.09 0.117188 160.544 0.117189L258.978 0.117208C262.432 0.117208 265.232 2.91708 265.232 6.3709V204.429Z" fill="#1D1D1D"/>
<path d="M341.311 0.117209V204.429H308.275V114.326H302.358V204.429H269.322V0.117209H302.358H308.275H341.311ZM308.275 81.4621V32.9813H302.358V81.4621H308.275Z" fill="#1D1D1D"/>
<path d="M456.292 204.429H384.303V32.9813H378.386V204.429H345.35V0.117188H417.339V171.565H423.256V0.117188H456.292V204.429Z" fill="#1D1D1D"/>
<path d="M461.041 0.117188H494.077V204.429H461.041V0.117188Z" fill="#1D1D1D"/>
<path d="M570.055 204.429H537.019V32.9813H531.102V106.302H498.066V0.117188H609.008V106.302H575.972V32.9813H570.055V204.429Z" fill="#1D1D1D"/>
<path d="M652.051 0.117188H685.087V152.474L665.857 158.916V204.429H632.821V158.916L613.098 152.474V0.117188H646.134V126.052H652.051V0.117188Z" fill="#1D1D1D"/>
</svg>
